#!OML:ASF F:\VICON\USERDATA\INSTALL\rory3\rory3.ASF
:FULLY-SPECIFIED
:DEGREES
176
root 4.8912 17.7733 2.14578 1.34577 -5.10525 -8.15524
lowerback 11.1854 2.28483 7.25994
upperback -0.32509 4.14648 2.3205
thorax -6.29143 1.83223 -2.29606
lowerneck -17.8345 -3.45006 -1.36451
upperneck 17.6827 -4.59068 1.01886
head 8.50336 -2.14828 -0.00395718
rclavicle -5.44981e-014 -2.93704e-014
rhumerus -21.706 -8.49537 -82.2372
rradius 33.9035
rwrist -1.00484
rhand -18.4699 23.3915
rfingers 7.12502
rthumb 7.81683 -6.44401
lclavicle -5.44981e-014 -2.93704e-014
lhumerus -36.9324 7.76878 81.0872
lradius 24.8119
lwrist 1.89402
lhand -24.0714 26.5841
lfingers 7.12502
lthumb 2.40843 56.5502
rfemur 8.99977 6.68395 34.5376
rtibia 25.2186
rfoot -20.6627 -6.27494
rtoes -5.25662
lfemur -27.4206 -4.02925 -8.90981
ltibia 12.9101
lfoot -4.58395 6.52106
ltoes 3.32738
177
root 4.91487 17.7582 2.35752 1.13867 -5.06203 -8.06797
lowerback 11.1743 2.29654 7.32711
upperback -0.244415 4.16062 2.26924
thorax -6.18913 1.84181 -2.38633
lowerneck -17.917 -3.47815 -1.25039
upperneck 17.6962 -4.64228 0.937891
head 8.5181 -2.17277 -0.0577195
rclavicle -6.1002e-015 1.26228e-014
rhumerus -21.9167 -8.85226 -82.1142
rradius 33.9395
rwrist -1.14389
rhand -18.6077 22.8771
rfingers 7.12502
rthumb 7.68383 -6.96326
lclavicle -6.1002e-015 1.26228e-014
lhumerus -36.9803 7.89146 81.018
lradius 24.6639
lwrist 1.66635
lhand -23.8203 27.4939
lfingers 7.12502
lthumb 2.65088 57.4572
rfemur 9.43096 6.74395 34.3819
rtibia 26.0452
rfoot -20.245 -5.93892
rtoes -6.06333
lfemur -27.5541 -3.28869 -9.6394
ltibia 14.6457
lfoot -5.64018 5.10478
ltoes -0.156775
178
root 4.93729 17.7524 2.5678 0.746719 -5.19171 -7.77361
lowerback 11.4907 2.37813 7.13406
upperback -0.207785 4.26479 2.17091
thorax -6.32463 1.89237 -2.41531
lowerneck -17.8502 -3.4999 -1.39648
upperneck 17.7981 -4.67954 1.14308
head 8.55052 -2.17794 0.0303094
rclavicle -3.11284e-014 -1.68967e-014
rhumerus -22.3558 -9.24726 -81.9133
rradius 34.029
rwrist -1.26213
rhand -18.5393 22.4381
rfingers 7.12502
rthumb 7.74982 -7.39986
lclavicle -3.11284e-014 -1.68967e-014
lhumerus -37.0357 8.49109 80.6945
lradius 23.9734
lwrist 1.45331
lhand -25.6533 21.7556
lfingers 7.12502
lthumb 0.880634 51.7335
rfemur 10.0436 6.77238 34.0057
rtibia 26.9447
rfoot -19.6156 -5.56481
rtoes -7.02026
lfemur -27.3397 -3.39711 -10.2265
ltibia 16.3291
lfoot -6.4717 4.11179
ltoes -1.45363
179
root 4.95885 17.7599 2.79258 0.401961 -5.32619 -7.38637
lowerback 11.5265 2.45949 6.83005
upperback -0.13805 4.32273 2.04842
thorax -6.27633 1.93189 -2.38476
lowerneck -17.6408 -3.46503 -1.44634
upperneck 17.7094 -4.64326 1.25659
head 8.48718 -2.15447 0.0856109
rclavicle 7.02269e-015 1.84373e-014
rhumerus -22.7072 -9.7968 -81.753
rradius 33.9748
rwrist -1.15789
rhand -18.3946 22.1745
rfingers 7.12502
rthumb 7.88946 -7.65826
lclavicle 7.02269e-015 1.84373e-014
lhumerus -37.2689 8.85405 80.4167
lradius 23.6144
lwrist 1.39076
lhand -26.3211 18.5479
lfingers 7.12502
lthumb 0.235651 48.5276
rfemur 10.5728 6.61043 33.4501
rtibia 27.9644
rfoot -18.7761 -5.10159
rtoes -8.36086
lfemur -26.823 -3.16533 -11.0365
ltibia 17.6193
lfoot -6.79426 2.22005
ltoes -1.62518
180
root 4.98711 17.7714 3.02795 0.137897 -5.61417 -7.0232
lowerback 11.3769 2.58591 6.56778
upperback -0.0267084 4.42848 1.9417
thorax -6.07396 2.00032 -2.35536
lowerneck -17.6873 -3.46626 -1.38325
upperneck 17.6937 -4.64769 1.1941
head 8.48689 -2.15871 0.0532006
rclavicle 4.7025e-015 -7.95139e-016
rhumerus -23.081 -10.1486 -81.6784
rradius 34.1117
rwrist -1.11631
rhand -18.8312 21.4186
rfingers 7.12502
rthumb 7.46809 -8.42953
lclavicle 4.7025e-015 -7.95139e-016
lhumerus -37.4308 9.25025 80.1752
lradius 23.3986
lwrist 1.23369
lhand -25.9386 19.6158
lfingers 7.12502
lthumb 0.605019 49.5947
rfemur 10.9369 6.54817 32.8383
rtibia 29.1457
rfoot -17.8947 -4.50245
rtoes -9.34829
lfemur -26.2085 -2.67814 -11.8394
ltibia 18.5525
lfoot -6.28005 -0.0534031
ltoes -2.71754
181
root 5.01891 17.7741 3.25828 0.0130739 -5.85453 -6.58793
lowerback 11.2736 2.73501 6.27808
upperback -0.0626778 4.57185 1.7807
thorax -6.04997 2.07763 -2.38013
lowerneck -17.6997 -3.60404 -1.3884
upperneck 17.7946 -4.84817 1.23997
head 8.52729 -2.24769 0.043039
rclavicle -8.6316e-015 -2.43014e-014
rhumerus -23.6439 -10.4115 -81.5482
rradius 34.2233
rwrist -1.283
rhand -19.0688 21.0373
rfingers 7.12502
rthumb 7.23878 -8.81886
lclavicle -8.6316e-015 -2.43014e-014
lhumerus -37.5287 9.71524 79.8358
lradius 23.0575
lwrist 0.859002
lhand -25.6821 19.8282
lfingers 7.12502
lthumb 0.852765 49.8062
rfemur 10.9949 6.4077 32.0677
rtibia 30.4927
rfoot -16.8778 -3.86922
rtoes -10.5804
lfemur -26.0434 -2.58841 -12.5121
ltibia 19.3836
lfoot -4.91542 -2.15032
ltoes -3.11686
182
root 5.04992 17.7774 3.48298 -0.0923156 -5.92374 -6.2347
lowerback 11.2455 2.79686 6.04095
upperback -0.19635 4.62254 1.68122
thorax -6.18182 2.10148 -2.36366
lowerneck -17.4917 -3.66512 -1.42749
upperneck 17.925 -4.94022 1.29693
head 8.53855 -2.28829 0.0594338
rclavicle 3.88127e-014 -1.27222e-014
rhumerus -24.2279 -10.7667 -81.3304
rradius 33.9664
rwrist -1.2968
rhand -19.2322 21.081
rfingers 7.12502
rthumb 7.08105 -8.78059
lclavicle 3.88127e-014 -1.27222e-014
lhumerus -37.956 9.74511 79.7318
lradius 23.0945
lwrist 0.902081
lhand -25.56 19.9353
lfingers 7.12502
lthumb 0.970739 49.9128
rfemur 10.818 6.13666 31.3739
rtibia 32.0622
rfoot -15.6557 -3.1624
rtoes -11.1994
lfemur -25.9852 -2.74373 -13.0108
ltibia 20.0708
lfoot -3.92717 -3.9151
ltoes -5.30591
183
root 5.07782 17.7809 3.7156 -0.30174 -6.09795 -5.81826
lowerback 11.0525 2.87661 5.68451
upperback -0.214115 4.66408 1.60878
thorax -6.10953 2.13475 -2.23678
lowerneck -17.1785 -3.65447 -1.51614
upperneck 17.9817 -4.92027 1.3547
head 8.50587 -2.28107 0.100919
rclavicle 2.39536e-014 8.15017e-015
rhumerus -24.6811 -10.9936 -81.0992
rradius 33.5171
rwrist -1.31607
rhand -19.4246 21.2576
rfingers 7.12502
rthumb 6.89533 -8.61007
lclavicle 2.39536e-014 8.15017e-015
lhumerus -38.3248 10.2898 79.3997
lradius 22.8562
lwrist 0.647078
lhand -25.5174 18.7901
lfingers 7.12502
lthumb 1.01185 48.7674
rfemur 10.633 6.00871 30.6262
rtibia 33.8317
rfoot -14.1862 -2.35406
rtoes -11.304
lfemur -25.5875 -2.80291 -13.6018
ltibia 20.6082
lfoot -3.77394 -5.09086
ltoes -7.79716
184
root 5.1004 17.7934 3.94634 -0.469608 -6.26691 -5.27303
lowerback 10.8663 2.9786 5.22133
upperback -0.258412 4.71885 1.43564
thorax -6.06831 2.17478 -2.15914
lowerneck -16.7536 -3.63476 -1.50966
upperneck 17.8739 -4.91869 1.45039
head 8.39635 -2.27443 0.140994
rclavicle 4.74505e-014 1.26725e-014
rhumerus -25.1586 -11.8352 -80.8603
rradius 32.9947
rwrist -0.755539
rhand -19.1581 21.961
rfingers 7.12502
rthumb 7.15252 -7.89816
lclavicle 4.74505e-014 1.26725e-014
lhumerus -38.4918 10.9894 78.857
lradius 22.4394
lwrist 0.400492
lhand -25.5229 17.84
lfingers 7.12502
lthumb 1.00654 47.8173
rfemur 10.2823 5.95086 29.7621
rtibia 35.7705
rfoot -12.3221 -1.55378
rtoes -10.9773
lfemur -25.1004 -2.8929 -14.3107
ltibia 21.1133
lfoot -3.37194 -5.66262
ltoes -7.65013
185
root 5.12035 17.8125 4.16482 -0.724958 -5.95717 -4.83423
lowerback 11.0439 2.86613 4.82051
upperback -0.350101 4.52722 1.32392
thorax -6.29998 2.08318 -2.04035
lowerneck -16.5726 -3.62547 -1.52706
upperneck 17.9375 -4.92104 1.52181
head 8.38816 -2.27036 0.170093
rclavicle -5.75979e-014 1.28216e-014
rhumerus -25.8293 -12.4161 -80.67
rradius 32.783
rwrist -0.368668
rhand -18.9 22.0196
rfingers 7.12502
rthumb 7.40172 -7.83095
lclavicle -5.75979e-014 1.28216e-014
lhumerus -38.8267 11.7563 78.2349
lradius 22.3185
lwrist -0.013666
lhand -24.9001 18.6668
lfingers 7.12502
lthumb 1.60808 48.6405
rfemur 9.83533 5.51015 29.0576
rtibia 37.8505
rfoot -10.0349 -0.962637
rtoes -10.0937
lfemur -24.6231 -3.14182 -14.938
ltibia 21.6232
lfoot -2.20659 -6.28047
ltoes -5.46988
